<?xml version="1.0" encoding="iso-8859-1"?>
<!-- Generator: Adobe Illustrator 19.1.0, SVG Export Plug-In . SVG Version: 6.00 Build 0)  -->
<svg version="1.1" id="Capa_1" xmlns="http://www.w3.org/2000/svg" xmlns:xlink="http://www.w3.org/1999/xlink" x="0px" y="0px"
	 viewBox="0 0 389.211 389.211" style="enable-background:new 0 0 389.211 389.211;" xml:space="preserve">
<g>
	<g>
		<path style="fill:#987D9A;" d="M388.325,320.992c-0.956-3.135-2.678-6.054-4.992-8.368l-97.941-97.958
			c26.627-55.754,16.866-124.553-29.312-170.731c-58.579-58.579-153.556-58.58-212.135-0.002
			c-58.579,58.579-58.58,153.556-0.002,212.135c46.178,46.178,114.993,55.933,170.747,29.306l97.941,97.958
			c3.703,3.702,8.924,5.879,14.16,5.879s10.42-2.153,14.122-5.855l42.431-42.431c3.702-3.703,5.857-8.886,5.857-14.122
			c0-1.963-0.305-3.934-0.879-5.814L388.325,320.992L388.325,320.992z M246.531,123.848c9.019,33.426,0.427,70.617-25.811,96.856
			c-39.052,39.052-102.358,39.059-141.411,0.006C40.257,181.658,40.25,118.352,79.303,79.299
			c39.052-39.052,102.358-39.059,141.411-0.006C233.528,92.107,242.127,107.524,246.531,123.848z M221.332,120.118
			c-0.153-0.49-0.335-0.971-0.547-1.439c-13.557-30.832-45.621-49.368-79.111-45.675c-6.863,0.75-11.819,6.922-11.07,13.785
			c0.069,0.63,0.186,1.254,0.349,1.867l1.31,4.89c1.582,5.882,7.174,9.768,13.238,9.2c19.974-1.879,39.252,9.251,47.612,27.489
			c2.54,5.536,8.701,8.436,14.586,6.865l4.89-1.31c6.67-1.785,10.63-8.638,8.845-15.308
			C221.403,120.36,221.369,120.239,221.332,120.118z"/>
	</g>
	<g>
	</g>
	<g>
	</g>
	<g>
	</g>
	<g>
	</g>
	<g>
	</g>
	<g>
	</g>
	<g>
	</g>
	<g>
	</g>
	<g>
	</g>
	<g>
	</g>
	<g>
	</g>
	<g>
	</g>
	<g>
	</g>
	<g>
	</g>
	<g>
	</g>
</g>
<g>
</g>
<g>
</g>
<g>
</g>
<g>
</g>
<g>
</g>
<g>
</g>
<g>
</g>
<g>
</g>
<g>
</g>
<g>
</g>
<g>
</g>
<g>
</g>
<g>
</g>
<g>
</g>
<g>
</g>
</svg>
